<svg xmlns="http://www.w3.org/2000/svg" viewBox="0 0 960 600" role="img" aria-label="Residential rooftop solar illustration">
  <defs>
    <linearGradient id="sky" x1="0" x2="0" y1="0" y2="1">
      <stop offset="0" stop-color="#EFF6FF"/>
      <stop offset="1" stop-color="#FFFFFF"/>
    </linearGradient>
    <linearGradient id="sun" x1="0" x2="1" y1="0" y2="1">
      <stop offset="0" stop-color="#FBBF24"/>
      <stop offset="1" stop-color="#10B981"/>
    </linearGradient>
  </defs>
  <rect width="960" height="600" fill="url(#sky)"/>
  <circle cx="780" cy="120" r="62" fill="url(#sun)" opacity="0.95"/>
  <g opacity="0.9">
    <rect x="140" y="290" width="680" height="220" rx="28" fill="#0F1B33"/>
    <path d="M220 290L480 160L740 290Z" fill="#12254A"/>
    <rect x="250" y="330" width="160" height="160" rx="18" fill="#0B1220"/>
    <rect x="440" y="340" width="330" height="90" rx="18" fill="#0B1220"/>
    <g transform="translate(440 340)">
      <rect width="330" height="90" rx="18" fill="#0B1220"/>
      <g transform="translate(20 16)" fill="#1E3A8A" opacity="0.75">
        <rect width="80" height="26" rx="6"/>
        <rect x="90" width="80" height="26" rx="6"/>
        <rect x="180" width="80" height="26" rx="6"/>
        <rect y="32" width="80" height="26" rx="6"/>
        <rect x="90" y="32" width="80" height="26" rx="6"/>
        <rect x="180" y="32" width="80" height="26" rx="6"/>
      </g>
      <rect x="20" y="16" width="290" height="58" rx="14" fill="none" stroke="#FBBF24" opacity="0.35"/>
    </g>
  </g>
  <path d="M0 520C180 470 260 560 430 530C610 496 710 456 960 495V600H0Z" fill="#ECFDF5"/>
  <path d="M0 545C190 505 300 590 475 560C655 530 740 500 960 530V600H0Z" fill="#D1FAE5"/>
</svg>

